<svg xmlns="http://www.w3.org/2000/svg" viewBox="20 20 976 160" width="976" height="160"><g transform="translate(20,20)"><rect width="160" height="160" rx="36.0" fill="#2A45C9"></rect><path d="M36.800,32.000 L75.200,32.000 A28.800,28.800 0 0 1 75.200,89.600 L56.000,89.600 L56.000,128.000 L36.800,128.000 Z M56.000,51.200 L56.000,70.400 L75.200,70.400 A9.600,9.600 0 0 0 75.200,51.200 Z" fill="#FFFFFF" fill-rule="evenodd"></path><path d="M112.000,28.800 L128.000,28.800 L114.400,60.800 L105.600,60.800 Z" fill="#F2B33D"></path></g><path d="M241.808 112.184V101.852H253.69400000000002Q257.306 101.852 259.784 100.424Q262.262 98.996 263.58500000000004 96.476Q264.908 93.95599999999999 264.908 90.722Q264.908 87.404 263.58500000000004 84.884Q262.262 82.364 259.784 80.97800000000001Q257.306 79.592 253.69400000000002 79.592H241.808V69.25999999999999H252.728Q260.456 69.25999999999999 265.874 71.78Q271.29200000000003 74.3 274.148 78.96199999999999Q277.004 83.624 277.004 90.05V91.394Q277.004 97.73599999999999 274.148 102.419Q271.29200000000003 107.102 265.874 109.643Q260.456 112.184 252.728 112.184ZM231.56 131.0V69.25999999999999H243.488V131.0Z M285.06800000000004 131.0V85.388H294.308V104.708H294.05600000000004Q294.05600000000004 94.922 298.25600000000003 89.86099999999999Q302.456 84.8 310.60400000000004 84.8H312.284V94.964H309.09200000000004Q303.17 94.964 299.957 98.13499999999999Q296.744 101.306 296.744 107.27V131.0Z M321.44 131.0V85.388H333.116V131.0ZM315.056 94.124V85.388H333.116V94.124ZM325.70300000000003 79.928Q322.28000000000003 79.928 320.64200000000005 78.143Q319.004 76.358 319.004 73.586Q319.004 70.814 320.64700000000005 69.029Q322.29 67.244 325.682 67.244Q329.126 67.244 330.743 69.029Q332.36 70.814 332.36 73.586Q332.36 76.358 330.743 78.143Q329.126 79.928 325.70300000000003 79.928Z M345.71600000000007 131.0V85.388H354.956V105.002H354.11600000000004Q354.11600000000004 98.114 355.88000000000005 93.452Q357.64400000000006 88.78999999999999 361.13000000000005 86.375Q364.61600000000004 83.96 369.82400000000007 83.96H370.32800000000003Q375.57800000000003 83.96 379.0640000000001 86.375Q382.55000000000007 88.78999999999999 384.29300000000006 93.452Q386.03600000000006 98.114 386.03600000000006 105.002H383.09600000000006Q383.09600000000006 98.114 384.8810000000001 93.452Q386.66600000000005 88.78999999999999 390.17300000000006 86.375Q393.68000000000006 83.96 398.88800000000003 83.96H399.39200000000005Q404.64200000000005 83.96 408.19100000000003 86.375Q411.74000000000007 88.78999999999999 413.54600000000005 93.452Q415.35200000000003 98.114 415.35200000000003 105.002V131.0H403.67600000000004V103.91Q403.67600000000004 99.584 401.47100000000006 97.022Q399.2660000000001 94.46000000000001 395.27600000000007 94.46000000000001Q391.20200000000006 94.46000000000001 388.78700000000003 97.106Q386.37200000000007 99.752 386.37200000000007 104.246V131.0H374.696V103.91Q374.696 99.584 372.49100000000004 97.022Q370.28600000000006 94.46000000000001 366.29600000000005 94.46000000000001Q362.22200000000004 94.46000000000001 359.807 97.106Q357.39200000000005 99.752 357.39200000000005 104.246V131.0Z M447.44 132.596Q441.56 132.596 437.15 130.57999999999998Q432.74 128.564 429.842 125.18299999999999Q426.944 121.80199999999999 425.47400000000005 117.602Q424.004 113.402 424.004 108.99199999999999V107.396Q424.004 102.86 425.47400000000005 98.63900000000001Q426.944 94.418 429.821 91.07900000000001Q432.698 87.74 437.003 85.76599999999999Q441.308 83.792 446.936 83.792Q454.328 83.792 459.30499999999995 87.047Q464.282 90.30199999999999 466.823 95.53099999999999Q469.364 100.75999999999999 469.364 106.80799999999999V111.05H428.96V103.91H462.014L458.444 107.396Q458.444 103.02799999999999 457.163 99.91999999999999Q455.882 96.812 453.341 95.132Q450.8 93.452 446.936 93.452Q443.03 93.452 440.342 95.237Q437.654 97.02199999999999 436.289 100.31899999999999Q434.924 103.616 434.924 108.23599999999999Q434.924 112.562 436.24699999999996 115.88Q437.57 119.198 440.342 121.06700000000001Q443.114 122.936 447.44 122.936Q451.682 122.936 454.37 121.214Q457.058 119.492 457.814 117.014H468.566Q467.6 121.676 464.723 125.20400000000001Q461.846 128.732 457.457 130.664Q453.068 132.596 447.44 132.596Z M508.59200000000004 131.0V78.5H520.52V131.0ZM490.86800000000005 80.18V69.68H538.244V80.18Z M545.972 131.0V69.68H557.648V105.464H555.6320000000001Q555.6320000000001 98.618 557.375 93.809Q559.118 89.0 562.625 86.47999999999999Q566.1320000000001 83.96 571.466 83.96H571.97Q579.782 83.96 583.835 89.357Q587.888 94.75399999999999 587.888 105.002V131.0H576.212V103.868Q576.212 99.542 573.713 97.001Q571.214 94.46000000000001 567.182 94.46000000000001Q562.898 94.46000000000001 560.273 97.274Q557.648 100.088 557.648 104.666V131.0Z M619.976 132.596Q614.096 132.596 609.6859999999999 130.57999999999998Q605.276 128.564 602.3779999999999 125.18299999999999Q599.48 121.80199999999999 598.01 117.602Q596.54 113.402 596.54 108.99199999999999V107.396Q596.54 102.86 598.01 98.63900000000001Q599.48 94.418 602.357 91.07900000000001Q605.234 87.74 609.539 85.76599999999999Q613.844 83.792 619.472 83.792Q626.864 83.792 631.841 87.047Q636.818 90.30199999999999 639.3589999999999 95.53099999999999Q641.9 100.75999999999999 641.9 106.80799999999999V111.05H601.496V103.91H634.55L630.98 107.396Q630.98 103.02799999999999 629.6990000000001 99.91999999999999Q628.418 96.812 625.877 95.132Q623.336 93.452 619.472 93.452Q615.566 93.452 612.878 95.237Q610.19 97.02199999999999 608.825 100.31899999999999Q607.46 103.616 607.46 108.23599999999999Q607.46 112.562 608.783 115.88Q610.106 119.198 612.8779999999999 121.06700000000001Q615.65 122.936 619.976 122.936Q624.218 122.936 626.906 121.214Q629.594 119.492 630.35 117.014H641.102Q640.136 121.676 637.259 125.20400000000001Q634.382 128.732 629.9929999999999 130.664Q625.604 132.596 619.976 132.596Z M672.686 132.596Q666.6800000000001 132.596 662.0600000000001 130.664Q657.44 128.732 654.248 125.435Q651.056 122.138 649.418 117.938Q647.78 113.738 647.78 109.16V107.396Q647.78 102.734 649.481 98.471Q651.182 94.208 654.4159999999999 90.911Q657.65 87.614 662.27 85.703Q666.89 83.792 672.686 83.792Q678.524 83.792 683.123 85.703Q687.722 87.614 690.956 90.911Q694.19 94.208 695.8910000000001 98.471Q697.592 102.734 697.592 107.396V109.16Q697.592 113.738 695.954 117.938Q694.316 122.138 691.124 125.435Q687.932 128.732 683.312 130.664Q678.692 132.596 672.686 132.596ZM672.686 122.6Q676.97 122.6 679.9100000000001 120.731Q682.85 118.862 684.383 115.607Q685.916 112.352 685.916 108.27799999999999Q685.916 104.078 684.341 100.82300000000001Q682.766 97.568 679.8050000000001 95.678Q676.844 93.788 672.686 93.788Q668.57 93.788 665.588 95.678Q662.606 97.568 661.031 100.82300000000001Q659.456 104.078 659.456 108.27799999999999Q659.456 112.352 660.989 115.607Q662.522 118.862 665.483 120.731Q668.444 122.6 672.686 122.6Z M707.0 131.0V85.388H716.24V104.708H715.988Q715.988 94.922 720.1880000000001 89.86099999999999Q724.388 84.8 732.5360000000001 84.8H734.216V94.964H731.024Q725.1020000000001 94.964 721.8890000000001 98.13499999999999Q718.676 101.306 718.676 107.27V131.0Z M739.844 148.976V138.98H748.412Q750.806 138.98 752.465 138.37099999999998Q754.124 137.762 755.195 136.35500000000002Q756.2660000000001 134.948 756.8960000000001 132.554L769.1600000000001 85.388H780.332L766.7660000000001 135.074Q765.422 140.156 763.0070000000001 143.222Q760.592 146.288 756.77 147.632Q752.948 148.976 747.32 148.976ZM754.04 129.992V120.752H763.784V129.992ZM750.092 129.992 735.308 85.388H747.068L761.096 129.992Z M805.784 131.0V69.68H817.712V131.0ZM816.032 131.0V120.5H842.4920000000001V131.0Z M878.066 131.0V117.476H876.134V102.44Q876.134 98.53399999999999 874.202 96.58099999999999Q872.27 94.628 868.28 94.628Q866.1800000000001 94.628 863.24 94.71199999999999Q860.3000000000001 94.79599999999999 857.318 94.922Q854.336 95.048 851.984 95.21600000000001V85.304Q853.916 85.136 856.331 84.989Q858.746 84.842 861.329 84.779Q863.912 84.716 866.1800000000001 84.716Q873.194 84.716 877.877 86.58500000000001Q882.5600000000001 88.45400000000001 884.933 92.402Q887.306 96.35 887.306 102.734V131.0ZM863.366 132.176Q858.41 132.176 854.693 130.433Q850.976 128.69 848.918 125.393Q846.86 122.096 846.86 117.476Q846.86 112.478 849.317 109.26499999999999Q851.774 106.05199999999999 856.268 104.477Q860.7620000000001 102.902 866.8100000000001 102.902H877.394V109.874H866.642Q862.652 109.874 860.51 111.827Q858.368 113.78 858.368 116.93Q858.368 120.038 860.51 121.949Q862.652 123.86 866.642 123.86Q869.078 123.86 871.1569999999999 122.97800000000001Q873.236 122.096 874.601 119.975Q875.966 117.854 876.134 114.116L878.99 117.392Q878.57 122.18 876.6800000000001 125.456Q874.79 128.732 871.472 130.454Q868.154 132.176 863.366 132.176Z M925.82 132.512Q920.192 132.512 915.908 130.118Q911.624 127.724 909.167 123.125Q906.71 118.526 906.5 111.974H908.264V131.0H899.024V69.68H910.7V100.382L907.592 105.128Q907.8860000000001 98.072 910.364 93.368Q912.842 88.66399999999999 917.042 86.31199999999998Q921.2420000000001 83.96 926.534 83.96Q931.2800000000001 83.96 935.144 85.72399999999999Q939.008 87.488 941.759 90.638Q944.51 93.788 945.98 98.00899999999999Q947.45 102.22999999999999 947.45 107.186V108.95Q947.45 113.906 945.9590000000001 118.16900000000001Q944.4680000000001 122.432 941.6120000000001 125.666Q938.7560000000001 128.9 934.7660000000001 130.70600000000002Q930.7760000000001 132.512 925.82 132.512ZM923.174 122.684Q926.9540000000001 122.684 929.789 120.815Q932.624 118.946 934.1990000000001 115.649Q935.774 112.352 935.774 108.068Q935.774 103.74199999999999 934.178 100.529Q932.582 97.316 929.768 95.55199999999999Q926.9540000000001 93.788 923.174 93.788Q919.772 93.788 916.8530000000001 95.321Q913.9340000000001 96.854 912.1490000000001 99.773Q910.364 102.692 910.364 106.80799999999999V110.168Q910.364 114.116 912.212 116.90899999999999Q914.0600000000001 119.702 917.0 121.193Q919.94 122.684 923.174 122.684Z M973.448 132.428Q963.998 132.428 958.685 128.459Q953.372 124.49 953.078 117.434H963.578Q963.83 119.786 966.203 121.697Q968.576 123.608 973.616 123.608Q977.774 123.608 980.273 122.096Q982.772 120.584 982.772 118.02199999999999Q982.772 115.754 980.8820000000001 114.41Q978.992 113.066 974.414 112.604L970.3820000000001 112.184Q962.738 111.386 958.6220000000001 107.83699999999999Q954.506 104.288 954.506 98.44999999999999Q954.506 93.746 956.858 90.554Q959.21 87.362 963.368 85.703Q967.5260000000001 84.044 972.902 84.044Q981.344 84.044 986.552 87.761Q991.76 91.478 992.0120000000001 98.618H981.5120000000001Q981.302 96.22399999999999 979.139 94.544Q976.976 92.864 972.818 92.864Q969.164 92.864 967.127 94.292Q965.09 95.72 965.09 98.03Q965.09 100.172 966.7280000000001 101.348Q968.366 102.524 972.062 102.944L976.094 103.364Q984.158 104.204 988.7570000000001 107.816Q993.356 111.428 993.356 117.602Q993.356 122.096 990.8779999999999 125.435Q988.4 128.774 983.927 130.601Q979.4540000000001 132.428 973.448 132.428Z" fill="#121A3A"></path></svg>